<svg xmlns="http://www.w3.org/2000/svg" width="800" height="800" fill="none" stroke="#6427C9" viewBox="-2.4 -2.4 28.8 28.8"><rect width="28.8" height="28.8" x="-2.4" y="-2.4" fill="#cef1fd" stroke="none" stroke-width="0" rx="14.4"/><g stroke-linecap="round" stroke-linejoin="round" stroke-width="1.5"><path d="M9.6 20h4.8c4 0 5.6-1.6 5.6-5.6V9.6c0-4-1.6-5.6-5.6-5.6H9.6C5.6 4 4 5.6 4 9.6v4.8c0 4 1.6 5.6 5.6 5.6Z"/><path d="M10.5 17h3c2.5 0 3.5-1 3.5-3.5v-3C17 8 16 7 13.5 7h-3C8 7 7 8 7 10.5v3C7 16 8 17 10.5 17ZM8.01 4V2M12 4V2M16 4V2M20 8h2M20 12h2M20 16h2M16 20v2M12.01 20v2M8.01 20v2M2 8h2M2 12h2M2 16h2"/><path d="m12 9.7-.94 1.64c-.21.36-.04.66.38.66h1.12c.42 0 .59.3.38.66L12 14.3"/></g></svg>
